<svg xmlns="http://www.w3.org/2000/svg" width="693" height="72" viewBox="0 0 693 72">
    <path d="M49.565 34.616c-1.844 3.603-4.706 5.904-7.752 6.645l14.03 29.444H39.785L28.247 44.493H14.308v26.212H0V.093h32.954C40.8.093 46.243 3.05 48.922 8.03c1.845 3.508 2.949 7.754 2.949 13.85 0 5.631-.918 9.968-2.306 12.736zM36.736 16.803c-.83-2.588-3.322-3.973-6.921-3.973H14.397v19.757h16.154c2.862 0 5.261-1.204 6.001-3.142.645-1.569.921-3.692.921-6.276.001-2.308-.276-5.076-.737-6.366zM83.443 72c-15.23 0-25.845-6.555-25.845-21.603V.093h14.583V49.2c0 6.461 3.786 10.337 11.445 10.337 7.015 0 11.171-3.782 11.171-10.247V.093h14.584v50.955C109.382 64.984 99.229 72 83.443 72zm70.615-1.295l-22.983-45.32v45.32h-13.847V.093h16.155l22.056 44.31V.093h13.85v70.612h-15.231zm59.812 0l-22.89-45.32v45.32h-13.847V.093h16.062l22.153 44.31V.093h13.753v70.612H213.87zm23.077 0V.093h45.232v12.922H251.44v15.88h29.445v12.919H251.44V57.88h31.106v12.825h-45.599zm102.644-36.089c-1.845 3.603-4.707 5.904-7.752 6.645l14.03 29.444h-16.062l-11.539-26.212h-13.937v26.212h-14.307V.093h32.953c7.846 0 13.29 2.957 15.969 7.937 1.845 3.508 2.952 7.754 2.952 13.85.001 5.631-.919 9.968-2.307 12.736zm-12.829-17.813c-.831-2.588-3.322-3.973-6.922-3.973h-15.418v19.757h16.155c2.862 0 5.261-1.204 6.001-3.142.644-1.569.921-3.692.921-6.276 0-2.308-.277-5.076-.737-6.366zM360.086 0l-3.326 22.157h-9.874V0h13.2zm30.458 70.705c-18.183 0-25.197-5.167-27.416-14.029-.644-2.492-.737-6.462-.737-7.476h14.678c0 .921.37 3.786.83 4.894 1.478 3.412 5.171 4.613 12.556 4.613 8.489 0 11.445-2.212 11.445-7.012 0-5.264-2.862-7.202-10.802-9.604-2.581-.831-7.104-2.212-10.243-3.416-11.539-3.599-18.277-8.583-18.277-19.661 0-11.63 8.771-18.922 26.399-18.922 15.691 0 24.001 5.63 26.582 14.675.647 2.124 1.201 4.985 1.201 6.835h-15.691c0-.831-.184-2.68-.737-4.158-1.294-3.6-4.433-5.077-11.538-5.077-8.77 0-11.262 2.031-11.262 6.093 0 4.892 3.136 6.555 12.553 9.508 3.139 1.013 7.568 2.583 9.971 3.601 10.614 3.232 17.723 8.12 17.723 19.477-.002 12.274-9.419 19.659-27.235 19.659zm301.567 0H430.609V.093h261.502v70.612zM472.143 25.108l7.569 32.675h10.891l12.556-45.136h-9.6l-8.583 32.954-7.292-32.954h-11.171l-7.292 32.954-8.583-32.954h-10.154l12.553 45.136h10.801l8.305-32.675zm72.829-6.553c-3.506-4.617-9.23-6.555-17.353-6.555-8.583 0-13.939 2.588-17.169 6.555-3.045 3.603-4.336 9.233-4.336 16.522 0 7.845 1.291 13.476 4.613 17.172 2.952 4.246 8.586 6.181 16.892 6.181 8.123 0 13.847-1.935 17.076-6.181 2.955-3.696 4.246-9.327 4.246-17.172 0-7.662-1.291-12.92-3.969-16.522zm-25.936 4.892c1.938-1.94 4.247-3.324 8.583-3.324 4.617 0 6.832 1.384 8.86 3.692 1.941 2.032 2.955 6.278 2.955 11.539 0 5.264-1.014 9.88-3.322 12.275-1.938 1.571-4.34 2.862-8.493 2.862-3.969 0-6.645-1.291-8.306-3.322-2.309-2.212-3.325-6.552-3.325-11.815 0-5.261 1.017-9.877 3.048-11.907zm47.074 18.831h9.601l7.938 15.505h11.262l-9.693-17.166c1.754-.65 3.692-1.567 5.077-3.603 1.294-2.308 2.215-5.631 2.215-9.6 0-5.257-.645-8.583-2.582-11.26-2.031-2.217-5.354-3.508-10.247-3.508h-22.8v45.136h9.229V42.278zm11.632-21.417c1.938 0 3.6.646 4.246 1.938 1.015 1.016 1.015 2.677 1.015 4.989 0 2.952 0 4.613-1.015 5.257-.646.927-2.031 1.385-3.599 1.385H566.11V20.861h11.632zm55.66 28.706h-22.065v-36.92h-9.871v45.136h31.937v-8.216h-.001zm42.277 3.323c2.952-3.689 3.97-8.307 3.97-18.183 0-9.23-1.018-13.845-4.246-17.167-2.679-3.601-7.292-4.892-13.847-4.892h-20.861v45.136h21.509c6.55-.001 10.797-1.662 13.475-4.894zm-15.508-32.029c3.6 0 5.631 1.019 7.569 2.585 1.661 2.03 2.396 5.909 2.396 11.26 0 5.633-.734 10.25-2.396 12.185-1.568 1.661-3.97 2.676-7.569 2.676h-9.877V20.861h9.877z"></path>
</svg>